<?xml version="1.0" standalone="no"?><!DOCTYPE svg PUBLIC "-//W3C//DTD SVG 1.1//EN" "http://www.w3.org/Graphics/SVG/1.1/DTD/svg11.dtd"><svg t="1773664779742" class="icon" viewBox="0 0 1024 1024" version="1.1" xmlns="http://www.w3.org/2000/svg" p-id="2974" xmlns:xlink="http://www.w3.org/1999/xlink" width="200" height="200"><path d="M896 604a36 36 0 0 0-36 36v128c0 50.72-41.28 92-92 92H256c-50.72 0-92-41.28-92-92V256c0-50.72 41.28-92 92-92h128a36 36 0 0 0 0-72H256c-90.44 0-164 73.56-164 164v512c0 90.44 73.56 164 164 164h512c90.44 0 164-73.56 164-164v-128a36 36 0 0 0-36-36z" p-id="2975" fill="#ffffff"></path><path d="M316 544v128a36 36 0 0 0 36 36h128c9.56 0 18.72-3.8 25.44-10.56l320-320c23.88-23.88 37.04-55.68 37.04-89.44s-13.16-65.56-37.04-89.44c-49.32-49.32-129.6-49.32-178.92 0l-320 320a36.004 36.004 0 0 0-10.56 25.44z m72 14.92l309.44-309.44c21.24-21.24 55.84-21.24 77.08 0 10.28 10.28 15.96 24 15.96 38.56s-5.68 28.24-15.96 38.56l-309.44 309.44H388v-77.08z" p-id="2976" fill="#ffffff"></path></svg>