<?xml version="1.0" standalone="no"?><!DOCTYPE svg PUBLIC "-//W3C//DTD SVG 1.1//EN" "http://www.w3.org/Graphics/SVG/1.1/DTD/svg11.dtd"><svg t="1772777526066" class="icon" viewBox="0 0 1024 1024" version="1.1" xmlns="http://www.w3.org/2000/svg" p-id="3393" xmlns:xlink="http://www.w3.org/1999/xlink" width="200" height="200"><path d="M512 288m-56 0a56 56 0 1 0 112 0 56 56 0 1 0-112 0Z" p-id="3394" fill="#ffffff"></path><path d="M512 964c-249.24 0-452-202.76-452-452S262.76 60 512 60s452 202.76 452 452-202.76 452-452 452z m0-832c-209.52 0-380 170.48-380 380s170.48 380 380 380 380-170.48 380-380-170.48-380-380-380z" p-id="3395" fill="#ffffff"></path><path d="M512 772a36 36 0 0 1-36-36v-288a36 36 0 0 1 72 0v288a36 36 0 0 1-36 36z" p-id="3396" fill="#ffffff"></path></svg>