<?xml version="1.0" standalone="no"?><!DOCTYPE svg PUBLIC "-//W3C//DTD SVG 1.1//EN" "http://www.w3.org/Graphics/SVG/1.1/DTD/svg11.dtd"><svg t="1772777606485" class="icon" viewBox="0 0 1024 1024" version="1.1" xmlns="http://www.w3.org/2000/svg" p-id="4073" xmlns:xlink="http://www.w3.org/1999/xlink" width="200" height="200"><path d="M768 932H256c-90.44 0-164-73.56-164-164v-128c0-55.16 44.84-100 100-100h192a36 36 0 0 1 36 36c0 50.72 41.28 92 92 92s92-41.28 92-92a36 36 0 0 1 36-36h192c55.16 0 100 44.84 100 100v128c0 90.44-73.56 164-164 164zM192 612c-15.44 0-28 12.56-28 28v128c0 50.72 41.28 92 92 92h512c50.72 0 92-41.28 92-92v-128c0-15.44-12.56-28-28-28h-160c-16.44 73.16-81.96 128-160 128s-143.56-54.84-160-128H192z" p-id="4074" fill="#ffffff"></path><path d="M800 612a36 36 0 0 1-36-36V256c0-50.72-41.28-92-92-92H352c-50.72 0-92 41.28-92 92v320a36 36 0 0 1-72 0V256c0-90.44 73.56-164 164-164h320c90.44 0 164 73.56 164 164v320a36 36 0 0 1-36 36z" p-id="4075" fill="#ffffff"></path><path d="M640 324H384a36 36 0 0 1 0-72h256a36 36 0 0 1 0 72zM576 484H384a36 36 0 0 1 0-72h192a36 36 0 0 1 0 72z" p-id="4076" fill="#ffffff"></path></svg>