<?xml version="1.0" standalone="no"?><!DOCTYPE svg PUBLIC "-//W3C//DTD SVG 1.1//EN" "http://www.w3.org/Graphics/SVG/1.1/DTD/svg11.dtd"><svg t="1772733436735" class="icon" viewBox="0 0 1024 1024" version="1.1" xmlns="http://www.w3.org/2000/svg" p-id="2941" xmlns:xlink="http://www.w3.org/1999/xlink" width="200" height="200"><path d="M768 932h-160a36 36 0 0 1-36-36v-156h-120v156a36 36 0 0 1-36 36H256c-90.44 0-164-73.56-164-164v-320c0-10.68 4.76-20.8 12.96-27.64l384-320a35.996 35.996 0 0 1 46.08 0l384 320A36.004 36.004 0 0 1 932 448v320c0 90.44-73.56 164-164 164z m-124-72h124c50.72 0 92-41.28 92-92v-303.12l-348-290-348 290V768c0 50.72 41.28 92 92 92h124v-156a36 36 0 0 1 36-36h192a36 36 0 0 1 36 36v156z" p-id="2942" fill="#ffffff"></path></svg>