<?xml version="1.0" standalone="no"?><!DOCTYPE svg PUBLIC "-//W3C//DTD SVG 1.1//EN" "http://www.w3.org/Graphics/SVG/1.1/DTD/svg11.dtd"><svg t="1772777575294" class="icon" viewBox="0 0 1024 1024" version="1.1" xmlns="http://www.w3.org/2000/svg" p-id="3620" xmlns:xlink="http://www.w3.org/1999/xlink" width="200" height="200"><path d="M896 604a36 36 0 0 0-36 36v128c0 50.72-41.28 92-92 92H256c-50.72 0-92-41.28-92-92V256c0-50.72 41.28-92 92-92h128a36 36 0 0 0 0-72H256c-90.44 0-164 73.56-164 164v512c0 90.44 73.56 164 164 164h512c90.44 0 164-73.56 164-164v-128a36 36 0 0 0-36-36z" p-id="3621" fill="#ffffff"></path><path d="M412 576c0 1.2 0.08 2.36 0.16 3.56 0.04 0.52 0.16 1.04 0.24 1.6 0.08 0.64 0.16 1.28 0.28 1.88 0.12 0.6 0.28 1.2 0.44 1.76 0.12 0.56 0.24 1.08 0.4 1.64 0.16 0.6 0.4 1.16 0.6 1.72 0.2 0.52 0.36 1.08 0.6 1.6 0.2 0.52 0.48 1.04 0.72 1.56 0.24 0.56 0.52 1.12 0.8 1.64l0.84 1.44c0.32 0.52 0.6 1.08 0.96 1.6s0.76 1.04 1.12 1.52c0.32 0.44 0.64 0.88 0.96 1.28 0.72 0.88 1.48 1.72 2.28 2.56 0 0 0.04 0.08 0.08 0.08s0.08 0.04 0.08 0.08c0.8 0.8 1.68 1.56 2.56 2.32 0.44 0.36 0.88 0.64 1.32 1 0.52 0.36 1 0.76 1.52 1.12 0.52 0.36 1.04 0.64 1.56 0.96 0.48 0.28 0.96 0.6 1.44 0.84 0.52 0.28 1.08 0.52 1.64 0.8 0.52 0.24 1.04 0.52 1.56 0.72 0.52 0.24 1.08 0.4 1.64 0.6 0.56 0.2 1.12 0.4 1.72 0.6 0.56 0.16 1.08 0.28 1.64 0.44 0.6 0.16 1.16 0.32 1.76 0.44 0.64 0.12 1.28 0.2 1.92 0.28l1.6 0.24c1.16 0.12 2.36 0.16 3.56 0.16h224a36 36 0 0 0 0-72h-137.08l386.56-386.56c14.04-14.04 14.04-36.84 0-50.92-14.04-14.08-36.84-14.08-50.92 0L484 489.12V352.04a36 36 0 0 0-72 0v224z" p-id="3622" fill="#ffffff"></path></svg>