<?xml version="1.0" standalone="no"?><!DOCTYPE svg PUBLIC "-//W3C//DTD SVG 1.1//EN" "http://www.w3.org/Graphics/SVG/1.1/DTD/svg11.dtd"><svg t="1772777507036" class="icon" viewBox="0 0 1024 1024" version="1.1" xmlns="http://www.w3.org/2000/svg" p-id="3167" xmlns:xlink="http://www.w3.org/1999/xlink" width="200" height="200"><path d="M921.08 571.6c-30.28-3.44-53.08-29.08-53.08-59.6s22.84-56.12 53.08-59.6a36.032 36.032 0 0 0 25.36-15.04 35.94 35.94 0 0 0 5.6-28.96c-20.28-86.44-65.36-164.44-130.36-225.64a35.96 35.96 0 0 0-27.88-9.64c-10.24 0.92-19.6 6.16-25.72 14.4-18.12 24.44-51.72 31.36-78.12 16.12-26.44-15.24-37.2-47.84-25.08-75.76a36.16 36.16 0 0 0-0.36-29.52 36 36 0 0 0-22.28-19.32c-42.16-12.68-86-19.12-130.28-19.12s-88.12 6.44-130.28 19.12a36 36 0 0 0-22.28 19.32 36.16 36.16 0 0 0-0.36 29.52c12.16 27.92 1.36 60.52-25.08 75.76-26.4 15.24-59.96 8.32-78.12-16.12a36.056 36.056 0 0 0-25.72-14.4c-10.24-0.92-20.36 2.6-27.88 9.64-65 61.2-110.08 139.2-130.36 225.64a35.972 35.972 0 0 0 30.96 44c30.28 3.44 53.08 29.08 53.08 59.6s-22.84 56.12-53.08 59.6a36.032 36.032 0 0 0-25.36 15.04 35.94 35.94 0 0 0-5.6 28.96c20.28 86.44 65.36 164.44 130.36 225.64a35.96 35.96 0 0 0 27.88 9.64c10.24-0.92 19.6-6.16 25.72-14.4 18.12-24.44 51.72-31.36 78.12-16.12 26.44 15.24 37.2 47.84 25.08 75.76a36.16 36.16 0 0 0 0.36 29.52 36 36 0 0 0 22.28 19.32c42.16 12.68 86 19.12 130.28 19.12s88.12-6.44 130.28-19.12a36 36 0 0 0 22.28-19.32 36.16 36.16 0 0 0 0.36-29.52c-12.16-27.92-1.36-60.52 25.08-75.76 26.4-15.24 59.96-8.32 78.12 16.12a36.056 36.056 0 0 0 25.72 14.4c10.24 0.92 20.36-2.6 27.88-9.64 65-61.2 110.08-139.2 130.36-225.64a35.972 35.972 0 0 0-30.96-44z m-125 192.76c-41.04-28.96-96.44-32.76-142.08-6.4-45.68 26.36-70.08 76.32-65.48 126.32a383.38 383.38 0 0 1-153 0c4.6-50.04-19.8-99.96-65.48-126.32-45.64-26.36-101.08-22.56-142.08 6.4-34.4-38.64-60.4-83.6-76.6-132.44 45.64-21 76.68-67.12 76.68-119.92s-31.04-98.88-76.68-119.92c16.2-48.88 42.2-93.8 76.6-132.44 41.04 28.96 96.44 32.76 142.08 6.4 45.68-26.36 70.08-76.28 65.48-126.32a383.38 383.38 0 0 1 153 0c-4.6 50.04 19.8 99.96 65.48 126.32 45.64 26.36 101.08 22.56 142.08-6.4 34.4 38.64 60.4 83.6 76.6 132.44C827.04 413.08 796 459.2 796 512s31.04 98.88 76.68 119.92c-16.2 48.88-42.2 93.8-76.6 132.44z" p-id="3168" fill="#ffffff"></path><path d="M512 348c-90.44 0-164 73.56-164 164s73.56 164 164 164 164-73.56 164-164-73.56-164-164-164z m0 256c-50.72 0-92-41.28-92-92s41.28-92 92-92 92 41.28 92 92-41.28 92-92 92z" p-id="3169" fill="#ffffff"></path></svg>