<?xml version="1.0" standalone="no"?><!DOCTYPE svg PUBLIC "-//W3C//DTD SVG 1.1//EN" "http://www.w3.org/Graphics/SVG/1.1/DTD/svg11.dtd"><svg t="1772777484220" class="icon" viewBox="0 0 1024 1024" version="1.1" xmlns="http://www.w3.org/2000/svg" p-id="2941" xmlns:xlink="http://www.w3.org/1999/xlink" width="200" height="200"><path d="M896 668a36 36 0 0 0-36 36v64c0 50.72-41.28 92-92 92H256c-50.72 0-92-41.28-92-92v-64a36 36 0 0 0-72 0v64c0 90.44 73.56 164 164 164h512c90.44 0 164-73.56 164-164v-64a36 36 0 0 0-36-36z" p-id="2942" fill="#ffffff"></path><path d="M281.44 409.44L476 214.88v489.08a36 36 0 0 0 72 0V214.92l194.56 194.56c7.04 7.04 16.24 10.56 25.44 10.56s18.44-3.52 25.44-10.56c14.04-14.04 14.04-36.84 0-50.92l-256-256c-0.84-0.84-1.72-1.64-2.64-2.4-0.4-0.36-0.84-0.64-1.28-0.96-0.52-0.4-1-0.8-1.56-1.12-0.52-0.36-1.04-0.64-1.56-0.96-0.48-0.28-0.96-0.6-1.44-0.84-0.52-0.28-1.08-0.52-1.64-0.8l-1.56-0.72c-0.52-0.2-1.08-0.4-1.6-0.6-0.56-0.2-1.12-0.44-1.72-0.6-0.56-0.16-1.08-0.28-1.64-0.4-0.6-0.16-1.16-0.32-1.76-0.44-0.64-0.12-1.28-0.2-1.92-0.28l-1.56-0.24c-2.36-0.24-4.76-0.24-7.12 0-0.52 0.04-1.04 0.16-1.56 0.24-0.64 0.08-1.28 0.16-1.92 0.28-0.6 0.12-1.2 0.28-1.76 0.44-0.56 0.12-1.08 0.24-1.64 0.4-0.6 0.16-1.16 0.4-1.72 0.6-0.56 0.2-1.08 0.36-1.6 0.6-0.52 0.2-1.04 0.48-1.56 0.72-0.56 0.24-1.12 0.52-1.64 0.8l-1.44 0.84c-0.52 0.32-1.04 0.6-1.56 0.96s-1.04 0.76-1.56 1.12c-0.44 0.32-0.88 0.6-1.28 0.96-0.92 0.76-1.8 1.56-2.64 2.4l-256 256c-14.04 14.04-14.04 36.84 0 50.92 14.04 14.08 36.84 14.08 50.92 0z" p-id="2943" fill="#ffffff"></path></svg>