<?xml version="1.0" standalone="no"?><!DOCTYPE svg PUBLIC "-//W3C//DTD SVG 1.1//EN" "http://www.w3.org/Graphics/SVG/1.1/DTD/svg11.dtd"><svg t="1772639283019" class="icon" viewBox="0 0 1024 1024" version="1.1" xmlns="http://www.w3.org/2000/svg" p-id="3112" xmlns:xlink="http://www.w3.org/1999/xlink" width="200" height="200"><path d="M512 964c-249.24 0-452-202.76-452-452 0-114.48 42.88-223.72 120.76-307.56 77.44-83.36 182.4-134.2 295.44-143.04a36.04 36.04 0 0 1 34.32 18.48 36 36 0 0 1-2.6 38.88C471.32 167.96 452 226.48 452 288c0 156.6 127.4 284 284 284 61.48 0 120-19.32 169.24-55.92a36 36 0 0 1 38.88-2.6 36.04 36.04 0 0 1 18.48 34.32c-8.88 113.08-59.68 218-143.04 295.44C735.72 921.12 626.52 964 512 964zM409.36 146.12C249.12 191.36 132 340 132 512c0 209.52 170.48 380 380 380 172 0 320.64-117.08 365.88-277.36-44.36 19.32-92.36 29.36-141.88 29.36-196.28 0-356-159.72-356-356 0-49.52 10-97.52 29.36-141.88z" p-id="3113" fill="#ffffff"></path></svg>